<svg width="159" height="46" viewBox="0 0 159 46" fill="none" xmlns="http://www.w3.org/2000/svg">
<g clip-path="url(#clip0_1483_1045)">
<path d="M29.7427 13.522V14.0896H19.8759V13.898C19.8759 12.1883 18.6816 10.5708 15.632 10.5708C12.5824 10.5708 11.2957 11.5711 11.2957 12.7133C11.2957 17.6084 30.411 13.7562 30.6456 25.8876C30.6456 34.0177 24.4468 37.3024 16.2078 37.3024C7.00917 37.3024 0 34.9755 0 25.6463H9.95927C9.95927 29.1652 12.0066 29.7824 15.2481 29.7824C17.1533 29.7824 19.8688 29.6405 19.8688 27.5973C19.8688 22.8866 0.518934 26.6467 0.518934 13.898C0.526043 6.29286 7.48545 3.44092 15.2481 3.44092C23.0108 3.44092 29.5935 6.53407 29.7356 13.522H29.7427Z" fill="#FCFBFF"/>
<path d="M35.543 8.66944V2.24902H45.026V8.66944H35.543ZM35.543 36.7348V11.6207H45.026V36.7348H35.543Z" fill="#FCFBFF"/>
<path d="M93.0669 20.4675V36.7349H83.5839V21.6097C83.5839 19.5168 82.5318 18.0412 80.5841 18.0412C78.2951 18.0412 76.8165 19.8503 76.8165 21.9928V36.7349H67.3335V21.6097C67.3335 19.5168 66.2885 18.0412 64.3336 18.0412C62.0446 18.0412 60.566 19.8503 60.566 21.9928V36.7349H51.083V11.6208H58.8528L59.4713 15.3808C61.3764 12.7204 64.7601 11.0532 68.2434 11.0532C72.1034 11.0532 74.627 12.6211 75.871 15.3808C77.8259 12.763 81.1172 11.0532 84.5009 11.0532C90.3158 11.0532 93.0811 14.5224 93.0811 20.4746L93.0669 20.4675Z" fill="#FCFBFF"/>
<path d="M159 19.9636V36.231H149.517V21.1058C149.517 19.0129 148.422 17.5373 146.325 17.5373C143.944 17.5373 142.366 19.3464 142.366 21.4889V36.231H132.883V11.1098H140.653L141.271 14.9124C143.226 12.252 146.659 10.5352 150.235 10.5352C156.192 10.5352 159.007 14.0043 159.007 19.9565L159 19.9636Z" fill="#FCFBFF"/>
<path d="M128.881 23.4398C128.881 18.644 126.578 14.3874 123.009 11.7199V7.23626C122.817 4.73194 120.734 0.00708008 114.173 0.00708008C107.612 0.00708008 105.529 4.6539 105.344 7.10856V11.6986C101.733 14.3661 99.4082 18.6369 99.4082 23.4469C99.4082 24.7594 99.593 26.0151 99.9058 27.2211C99.9556 27.4269 100.005 27.6326 100.062 27.8313C100.062 27.8455 100.069 27.8596 100.076 27.8738C101.441 32.7264 105.237 36.5574 110.078 37.9691V46.0071L121.737 36.4793C126.016 33.9182 128.881 29.243 128.881 23.901C128.881 23.83 128.867 23.7662 128.867 23.6952C128.867 23.6101 128.881 23.5321 128.881 23.4469V23.4398ZM110.327 7.34268C110.42 6.61905 110.853 4.76032 114.173 4.76032C117.656 4.76032 118.04 6.76094 118.125 7.46328V9.3291C116.874 8.98148 115.566 8.79702 114.208 8.79702C112.851 8.79702 111.571 8.97438 110.334 9.30073V7.34268H110.327ZM115.801 30.2079L116.05 33.7693H112.261L112.595 30.215C109.495 29.5055 107.228 26.7742 107.228 23.4469C107.228 19.6302 110.313 16.5512 114.194 16.5512C118.076 16.5512 121.104 19.6302 121.104 23.4469C121.104 26.76 118.843 29.4914 115.794 30.2079H115.801Z" fill="#00F1C7"/>
</g>
<defs>
<clipPath id="clip0_1483_1045">
<rect width="159" height="46" fill="white"/>
</clipPath>
</defs>
</svg>
