<svg width="67" height="65" viewBox="0 0 67 65" fill="none" xmlns="http://www.w3.org/2000/svg">
<g clip-path="url(#clip0_459_5187)">
<path d="M19.474 19.312H16.4629V41.8813H19.474V19.312Z" fill="#010101"/>
<path d="M50.7104 45.258C47.1505 49.4229 41.9725 51.8149 36.4991 51.8149C31.0256 51.8149 25.7491 49.3806 22.1752 45.1313L22.0204 44.9343L19.5439 47.0168L19.6987 47.2138C23.8777 52.1948 29.9984 55.0511 36.485 55.0511C42.9716 55.0511 48.9797 52.2511 53.1587 47.3545L53.3276 47.1575L50.8793 45.061L50.7104 45.258Z" fill="#010101"/>
<path d="M28.6058 41.895C31.5044 41.895 33.9808 40.1361 35.0502 37.6316H31.5044C30.7727 38.4055 29.7455 38.8839 28.5917 38.8839C26.9173 38.8839 25.4821 37.8567 24.8912 36.3934H35.4301C35.4301 36.3934 35.5145 35.9712 35.5567 35.4506C35.5989 34.93 35.5989 34.536 35.5989 34.536C35.416 30.8214 32.3486 27.8806 28.6058 27.8806C24.863 27.8806 21.5986 31.0184 21.5986 34.8878C21.5986 38.7572 24.7364 41.895 28.6058 41.895ZM28.6058 30.8917C30.2802 30.8917 31.7154 31.9189 32.3064 33.3822H24.9052C25.4962 31.9189 26.9314 30.8917 28.6058 30.8917Z" fill="#010101"/>
<path d="M56.9017 19.312H53.8906V41.8813H56.9017V19.312Z" fill="#010101"/>
<path d="M44.8005 41.895C46.278 41.895 47.6569 41.4306 48.7825 40.6427V41.895H51.7937V35.2818C51.7937 35.1551 51.7937 35.0144 51.7937 34.8878C51.7937 31.0184 48.6559 27.8806 44.7865 27.8806C40.917 27.8806 37.7793 31.0184 37.7793 34.8878C37.7793 38.7572 40.917 41.895 44.7865 41.895M44.7865 30.8917C46.9956 30.8917 48.7825 32.6787 48.7825 34.8878C48.7825 34.9159 48.7825 34.9441 48.7825 34.9722V35.1974C48.6278 37.2657 46.8971 38.8839 44.8005 38.8839C42.5915 38.8839 40.8045 37.0969 40.8045 34.8878C40.8045 32.6787 42.5915 30.8917 44.8005 30.8917" fill="#010101"/>
<path d="M48.7831 34.9582C48.7831 34.9582 48.7831 34.9019 48.7831 34.8737C48.7831 32.6647 46.9962 30.8777 44.7871 30.8777C42.578 30.8777 40.791 32.6647 40.791 34.8737C40.791 37.0828 42.578 38.8698 44.7871 38.8698C46.9962 38.8698 48.6143 37.2517 48.7691 35.1833V34.9582H48.7831Z" fill="#FFD600"/>
<path d="M28.6059 30.8914C26.9314 30.8914 25.4962 31.9185 24.9053 33.3819H32.3064C31.7155 31.9185 30.2803 30.8914 28.6059 30.8914Z" fill="#FFD600"/>
<path d="M42.5778 3.69321C23.4136 -0.950107 0 0.456957 0 0.456957C0 0.456957 2.78599 0.73837 7.99213 4.29824C12.4807 7.26715 15.1259 10.5034 15.5481 11.0381C9.45547 16.6241 5.62826 24.6444 5.62826 33.5652C5.62826 50.4359 19.3049 64.1126 36.1756 64.1126C38.2722 64.1126 40.3124 63.9015 42.2823 63.4934C56.2263 60.6652 66.723 48.3253 66.723 33.5511C66.723 18.7769 56.3811 6.63397 42.5778 3.69321ZM16.4627 19.3116H19.4738V41.8809H16.4627V19.3116ZM44.815 41.8809C40.9456 41.8809 37.8078 38.7432 37.8078 34.8738C37.8078 31.0043 40.9456 27.8666 44.815 27.8666C48.6844 27.8666 51.8222 31.0043 51.8222 34.8738C51.8222 35.0145 51.8222 35.1411 51.8222 35.2677V41.8809H48.8111V40.6286C47.6854 41.4166 46.3065 41.8809 44.8291 41.8809M28.6338 38.8839C29.7735 38.8839 30.8147 38.3914 31.5464 37.6316H35.0922C34.0228 40.1362 31.5464 41.895 28.6478 41.895C24.7784 41.895 21.6407 38.7573 21.6407 34.8878C21.6407 31.0184 24.7784 27.8806 28.6478 27.8806C32.5173 27.8806 35.458 30.8214 35.6409 34.522C35.6409 34.522 35.6409 34.916 35.5987 35.4366C35.5565 35.9572 35.4721 36.3793 35.4721 36.3793H24.9332C25.5241 37.8427 26.9594 38.8698 28.6338 38.8698M19.727 47.1996L19.5723 47.0027L22.0487 44.9343L22.2035 45.1313C25.7633 49.3806 30.9836 51.8148 36.5274 51.8148C42.0712 51.8148 47.1789 49.4228 50.7387 45.2579L50.9076 45.0609L53.3559 47.1574L53.187 47.3544C49.0081 52.2369 42.9295 55.0511 36.5133 55.0511C30.0971 55.0511 23.906 52.1947 19.727 47.2137M56.9298 41.895H53.9187V19.3116H56.9298V41.8809V41.895Z" fill="#FFD600"/>
</g>
<defs>
<clipPath id="clip0_459_5187">
<rect width="66.7371" height="63.8666" fill="white" transform="translate(0 0.26001)"/>
</clipPath>
</defs>
</svg>
